<svg width="140" height="36" viewBox="0 0 140 36" fill="none" xmlns="http://www.w3.org/2000/svg">
<g clip-path="url(#clip0_385_257)">
<rect x="0.242676" y="0.406677" width="139" height="35" rx="7" fill="#090422"/>
<g clip-path="url(#clip1_385_257)">
<mask id="mask0_385_257" style="mask-type:luminance" maskUnits="userSpaceOnUse" x="0" y="0" width="140" height="36">
<path d="M139.243 0.406677H0.242676V35.4067H139.243V0.406677Z" fill="white"/>
</mask>
<g mask="url(#mask0_385_257)">
<path d="M46.7327 13.6496H40.7954V15.7825H46.9844C47.5914 15.7825 48.1444 16.0076 48.6426 16.4582C49.1214 16.9996 49.3608 17.5564 49.3608 18.1283V18.3558C49.3608 18.4723 49.341 18.6265 49.3016 18.819C49.1043 19.4821 48.7785 19.9629 48.3243 20.2612C47.9689 20.5547 47.4088 20.7016 46.6438 20.7016H40.7807V24.5804H42.9351V22.8647L46.8144 22.8191C47.2043 22.8191 47.5449 22.7963 47.8363 22.7508C48.7098 22.5586 49.4477 22.189 50.0499 21.6424C51.0272 20.6809 51.5156 19.5575 51.5156 18.2721C51.5156 17.6546 51.4144 17.0778 51.2119 16.5413C50.3775 14.6139 48.8844 13.6496 46.7327 13.6496ZM57.0897 22.1894C56.7443 22.0628 56.374 21.8047 55.9793 21.4152C55.3771 20.6915 55.0762 19.9172 55.0762 19.0926C55.0762 18.8548 55.1131 18.5712 55.1873 18.2422C55.5228 17.2707 56.0067 16.6153 56.6383 16.2762C57.1023 15.9372 57.7835 15.7678 58.6818 15.7678H63.6565V13.6423H58.9851C58.0477 13.6423 57.4084 13.6956 57.0678 13.8018C56.4016 13.9182 55.6562 14.2952 54.832 14.933C53.5735 16.0869 52.9443 17.4782 52.9443 19.108C52.9443 19.8619 53.0826 20.5729 53.3588 21.2409C53.9265 22.5768 54.8666 23.5383 56.1794 24.1253C56.7666 24.4289 57.67 24.5807 58.8886 24.5807H63.6565V22.4551H58.652C57.9903 22.4548 57.4696 22.3664 57.0897 22.1894ZM18.7933 13.6496H12.8559V15.7825H19.045C19.6519 15.7825 20.205 16.0076 20.7032 16.4582C21.182 16.9996 21.4213 17.5564 21.4213 18.1283V18.3558C21.4213 18.4723 21.4015 18.6265 21.3622 18.819C21.1649 19.4821 20.839 19.9629 20.3848 20.2612C20.0295 20.5547 19.4693 20.7016 18.7044 20.7016H12.8412V24.5804H14.9957V22.8647L18.875 22.8191C19.2649 22.8191 19.6055 22.7963 19.8965 22.7508C20.7699 22.5586 21.5079 22.189 22.1101 21.6424C23.0874 20.6809 23.5758 19.5575 23.5758 18.2721C23.5758 17.6546 23.4746 17.0778 23.2721 16.5413C22.438 14.6139 20.945 13.6496 18.7933 13.6496ZM37.2198 13.6496L34.1252 17.4526L31.0308 13.6496H28.6174L32.8224 19.115L28.6174 24.5804H31.0308L34.1252 20.7774L37.2198 24.5804H39.6331L35.4282 19.115L39.6481 13.6496H37.2198ZM25.0045 24.5804H27.1439V13.6496H25.0045V24.5804ZM88.1268 18.1283C87.7914 17.9309 87.1544 17.8323 86.217 17.8323H82.5668C82.4435 17.8323 82.325 17.8096 82.2119 17.764C81.8414 17.5364 81.6565 17.2528 81.6565 16.9137V16.7542C81.7845 16.1823 82.1326 15.8965 82.7001 15.8965H89.9551V13.6496H82.7662C82.0361 13.6496 81.4485 13.7863 81.0045 14.0595C79.9385 14.7124 79.4055 15.6005 79.4055 16.724V17.0199C79.4055 17.5666 79.5611 18.1055 79.8719 18.6367C80.5875 19.5982 81.4808 20.0789 82.5519 20.0789H86.6455C86.8776 20.0789 87.0677 20.1192 87.2159 20.2002C87.6352 20.4331 87.8448 20.7668 87.8448 21.2023L87.8305 21.4071C87.6622 22.0246 87.2727 22.3332 86.6605 22.3332H79.3762L79.3836 24.58H86.1648C86.831 24.58 87.3072 24.5471 87.5938 24.4815C87.9787 24.3753 88.3193 24.2259 88.6151 24.0338C89.6122 23.2848 90.1108 22.3636 90.1108 21.2707C90.1108 20.8153 90.0217 20.3471 89.8442 19.8664C89.5283 19.0873 88.9557 18.5077 88.1268 18.1283ZM76.7323 12.5192C75.8874 11.603 74.7202 11.145 73.2314 11.145H64.7892V13.7436H73.1677C73.4227 13.7436 73.5508 13.7562 73.5508 13.7811C73.9701 13.7811 74.3653 13.9308 74.7363 14.2299C75.1677 14.6598 75.3836 15.1398 75.3836 15.6696C75.371 15.8004 75.3469 15.9624 75.3107 16.1556C75.0149 16.9989 74.4813 17.4691 73.7105 17.5666V17.5561H58.0477V20.1858H70.0597C71.0867 20.1991 71.923 20.4383 72.5663 20.9043C73.7271 21.7707 74.3078 22.9391 74.3078 24.41V24.6158H76.9609C76.9609 22.6277 76.4078 21.0292 75.3015 19.8201C75.7392 19.6704 76.2257 19.3341 76.7604 18.8107C77.5927 17.8695 78.0091 16.9067 78.0091 15.9221V15.5389C78.0091 14.8968 77.8449 14.2394 77.5169 13.5665C77.3704 13.2295 77.1091 12.8806 76.7323 12.5192ZM113.823 16.5722C113.73 16.3646 113.576 16.1142 113.364 15.8208C112.209 14.3733 110.778 13.6499 109.07 13.6499C107.363 13.6499 105.934 14.3736 104.784 15.8208C104.567 16.1093 104.412 16.3597 104.318 16.5722C104.179 16.8201 104.048 17.1543 103.926 17.5743C103.777 18.0803 103.704 18.7686 103.704 19.6389V24.5804H105.85V19.4035C105.85 17.6627 106.618 16.4989 108.153 15.9119C108.498 15.8106 108.804 15.7576 109.071 15.7524C109.337 15.7573 109.646 15.8106 109.996 15.9119C111.531 16.4989 112.299 17.663 112.299 19.4035V24.5804H114.438V19.6389C114.438 18.7686 114.364 18.0803 114.216 17.5743C114.092 17.1543 113.961 16.8201 113.823 16.5722ZM121.671 13.6345C120.872 13.6345 120.262 13.6952 119.842 13.8169C119.374 13.9536 119.006 14.0977 118.739 14.2495C118.369 14.4014 117.893 14.7682 117.31 15.3502C116.348 16.4484 115.867 17.6553 115.867 18.9709V19.2896C115.867 20.2307 116.143 21.1518 116.696 22.0526C116.918 22.4878 117.36 22.9738 118.021 23.5099C118.934 24.2234 120.052 24.58 121.375 24.58H123.159V22.4622H121.671C120.911 22.4622 120.376 22.3812 120.065 22.2192C119.754 22.1333 119.383 21.8801 118.954 21.4601C118.313 20.7465 117.992 19.9646 117.992 19.1147C117.992 18.4264 118.229 17.7356 118.703 17.0424C119.141 16.4656 119.68 16.0886 120.316 15.9112C120.434 15.8201 121.027 15.7744 122.093 15.7744H122.552L124.462 15.7668V24.5797H126.602V13.6338L121.671 13.6345ZM96.951 13.6496H96.877C96.5116 13.6496 96.2158 13.6748 95.9884 13.7253C95.2486 13.8064 94.4289 14.1756 93.5312 14.8337C92.2032 16.0076 91.5398 17.4197 91.5398 19.0694V19.1452C91.5398 19.7272 91.6357 20.3215 91.8282 20.9289C91.9913 21.4145 92.275 21.9485 92.68 22.5305C93.8396 23.897 95.2337 24.58 96.8626 24.58H96.9361C98.1257 24.58 99.2187 24.2007 100.216 23.4415C101.588 22.2676 102.274 20.8405 102.274 19.1602V19.0845C102.274 17.8699 101.899 16.7464 101.149 15.7141C99.9889 14.3379 98.5898 13.6496 96.951 13.6496ZM99.9941 20.0943C99.7765 20.8078 99.3623 21.3948 98.75 21.8552C98.1578 22.255 97.5754 22.4548 97.0027 22.4548H96.796C96.0849 22.4548 95.4065 22.1715 94.7598 21.6045C94.0343 20.8861 93.6719 20.0509 93.6719 19.0996C93.6719 18.7454 93.7409 18.3709 93.8793 17.9761C93.958 17.6928 94.1481 17.3485 94.4491 16.9438C95.1647 16.1546 95.9838 15.7598 96.9068 15.7598C97.6966 15.7598 98.4221 16.0609 99.0837 16.663C99.7896 17.3765 100.142 18.1988 100.142 19.1301C100.112 19.5855 100.063 19.9071 99.9941 20.0943Z" fill="white"/>
</g>
</g>
</g>
<defs>
<clipPath id="clip0_385_257">
<rect width="139" height="35" fill="white" transform="translate(0.242676 0.406677)"/>
</clipPath>
<clipPath id="clip1_385_257">
<rect width="139" height="35" fill="white" transform="translate(0.242676 0.406677)"/>
</clipPath>
</defs>
</svg>
