<svg width="156" height="41" viewBox="0 0 156 41" fill="none" xmlns="http://www.w3.org/2000/svg">
<g clip-path="url(#clip0_385_268)">
<g clip-path="url(#clip1_385_268)">
<path d="M15.6417 23.1347L14.7027 25.3187H13.7857L17.4767 16.7687H18.4917L22.1827 25.3187H21.2327L20.3047 23.1347H15.6417ZM15.9807 22.3157H19.9547L17.9677 17.6967L15.9807 22.3157ZM28.2367 25.3187H27.3847V21.9227C27.3847 20.8417 26.8167 20.1537 25.7687 20.1537C25.2667 20.1537 24.8517 20.3277 24.5237 20.6887C24.1967 21.0377 24.0327 21.4747 24.0327 21.9987V25.3187H23.1807V19.4877H24.0217V20.5577C24.4797 19.7707 25.1457 19.3777 26.0307 19.3777C27.4287 19.3777 28.2367 20.3167 28.2367 21.7147V25.3187ZM32.9227 17.4017C32.9227 17.0407 33.2057 16.7577 33.5557 16.7577C33.9157 16.7577 34.1997 17.0407 34.1997 17.4017C34.1997 17.7507 33.9157 18.0347 33.5557 18.0347C33.2057 18.0347 32.9227 17.7507 32.9227 17.4017ZM33.9927 19.4877V25.3187H33.1297V19.4877H33.9927ZM40.9687 25.3187H40.1167V21.9227C40.1167 20.8417 39.5497 20.1537 38.5007 20.1537C37.9987 20.1537 37.5837 20.3277 37.2557 20.6887C36.9287 21.0377 36.7647 21.4747 36.7647 21.9987V25.3187H35.9127V19.4877H36.7537V20.5577C37.2127 19.7707 37.8787 19.3777 38.7627 19.3777C40.1607 19.3777 40.9687 20.3167 40.9687 21.7147V25.3187ZM42.6047 17.4017C42.6047 17.0407 42.8887 16.7577 43.2387 16.7577C43.5987 16.7577 43.8827 17.0407 43.8827 17.4017C43.8827 17.7507 43.5987 18.0347 43.2387 18.0347C42.8887 18.0347 42.6047 17.7507 42.6047 17.4017ZM43.6747 19.4877V25.3187H42.8127V19.4877H43.6747ZM47.6377 25.3617C46.5347 25.3617 45.9887 24.8487 45.9887 23.8117V20.2407H44.9077V19.4867H45.9887V17.8057H46.8297V19.4867H48.3037V20.2407H46.8297V23.7897C46.8297 24.3357 47.1457 24.6087 47.7797 24.6087C48.0087 24.6087 48.1837 24.5977 48.3037 24.5647V25.2747C48.1177 25.3287 47.8887 25.3617 47.6377 25.3617ZM49.5357 17.4017C49.5357 17.0407 49.8197 16.7577 50.1697 16.7577C50.5297 16.7577 50.8137 17.0407 50.8137 17.4017C50.8137 17.7507 50.5297 18.0347 50.1697 18.0347C49.8197 18.0347 49.5357 17.7507 49.5357 17.4017ZM50.6067 19.4877V25.3187H49.7437V19.4877H50.6067ZM54.4267 21.9547H56.0427V21.5617C56.0427 20.6117 55.5517 20.1427 54.5577 20.1427C53.8047 20.1427 53.2477 20.5247 52.8877 21.2887L52.1887 20.8957C52.6247 19.8917 53.4227 19.3887 54.5797 19.3887C55.6497 19.3887 56.3597 19.7927 56.7087 20.5897C56.8287 20.8737 56.8837 21.1907 56.8837 21.5507V25.3187H56.0537V24.2917H56.0427C55.5627 25.0457 54.9077 25.4167 54.0777 25.4167C53.4987 25.4167 53.0177 25.2527 52.6577 24.9357C52.2977 24.6087 52.1227 24.1937 52.1227 23.7017V23.6367C52.1227 23.0577 52.3517 22.6427 52.8107 22.3697C53.2807 22.0967 53.8157 21.9547 54.4267 21.9547ZM56.0427 22.8617V22.6537H54.4157C53.7497 22.6427 53.0077 22.8717 52.9747 23.6367C52.9747 24.2807 53.4987 24.6627 54.2307 24.6627C54.7547 24.6627 55.1907 24.4997 55.5297 24.1607C55.8687 23.8217 56.0427 23.3967 56.0427 22.8617ZM60.7217 25.3617C59.6187 25.3617 59.0727 24.8487 59.0727 23.8117V20.2407H57.9917V19.4867H59.0727V17.8057H59.9137V19.4867H61.3877V20.2407H59.9137V23.7897C59.9137 24.3357 60.2307 24.6087 60.8637 24.6087C61.0927 24.6087 61.2677 24.5977 61.3877 24.5647V25.2747C61.2027 25.3287 60.9727 25.3617 60.7217 25.3617ZM62.6207 17.4017C62.6207 17.0407 62.9047 16.7577 63.2537 16.7577C63.6147 16.7577 63.8977 17.0407 63.8977 17.4017C63.8977 17.7507 63.6147 18.0347 63.2537 18.0347C62.9047 18.0347 62.6207 17.7507 62.6207 17.4017ZM63.6907 19.4877V25.3187H62.8277V19.4877H63.6907ZM64.9017 19.4877H65.8407L67.8387 24.3787L69.8697 19.4877H70.7757L68.2867 25.3187H67.3797L64.9017 19.4877ZM76.9397 22.6647H72.2217C72.2547 23.2327 72.4737 23.7127 72.8667 24.0957C73.2597 24.4777 73.7397 24.6627 74.3077 24.6627C75.1267 24.6627 75.8147 24.1937 76.1527 23.4947L76.7867 23.9097C76.2947 24.8707 75.3667 25.4167 74.3187 25.4167C73.4777 25.4167 72.7787 25.1217 72.2107 24.5427C71.6437 23.9537 71.3597 23.2327 71.3597 22.3917C71.3597 21.5837 71.6327 20.8847 72.1787 20.2847C72.7247 19.6837 73.4017 19.3887 74.1987 19.3887C75.0717 19.3887 75.7497 19.6727 76.2297 20.2297C76.7097 20.7867 76.9507 21.4967 76.9507 22.3807C76.9507 22.5117 76.9507 22.6107 76.9397 22.6647ZM72.2327 21.9437H76.0877C75.9677 20.8517 75.2907 20.1317 74.1987 20.1317C73.7077 20.1317 73.2707 20.3057 72.8987 20.6667C72.5277 21.0157 72.3097 21.4417 72.2327 21.9437ZM83.6847 17.1507C83.1607 17.1507 82.7127 17.4777 82.7127 18.3847V19.4877H84.2417V20.2297H82.7127V25.3187H81.8607V20.2297H80.7797V19.4877H81.8607V18.4057C81.8607 17.0957 82.5707 16.3967 83.6517 16.3967C83.8597 16.3967 84.0777 16.4297 84.2957 16.5057V17.2267C84.1437 17.1717 83.9357 17.1507 83.6847 17.1507ZM85.3927 19.4867H86.2327V20.6447C86.6367 19.8037 87.3687 19.3997 88.1117 19.3997C88.2527 19.3997 88.3517 19.3997 88.3947 19.4107V20.3167C88.2527 20.3057 88.1437 20.2947 88.0677 20.2947C87.4337 20.2947 86.9757 20.5137 86.6807 20.9397C86.3857 21.3657 86.2437 21.8677 86.2437 22.4677V25.3177H85.3927V19.4867ZM91.9147 25.4167C91.0737 25.4167 90.3527 25.1217 89.7747 24.5427C89.1957 23.9647 88.9117 23.2547 88.9117 22.4247C88.9117 21.5617 89.1957 20.8417 89.7747 20.2627C90.3527 19.6837 91.0737 19.3887 91.9367 19.3887C92.7777 19.3887 93.4867 19.6837 94.0657 20.2627C94.6447 20.8417 94.9397 21.5397 94.9397 22.3807C94.9397 23.2437 94.6447 23.9647 94.0657 24.5427C93.4867 25.1217 92.7667 25.4167 91.9147 25.4167ZM91.9367 24.6627C92.5477 24.6627 93.0507 24.4447 93.4547 24.0077C93.8587 23.5707 94.0657 23.0467 94.0657 22.4247C94.0657 21.8017 93.8587 21.2557 93.4547 20.8087C93.0507 20.3607 92.5367 20.1317 91.9147 20.1317C91.2927 20.1317 90.7897 20.3497 90.3857 20.7867C89.9817 21.2237 89.7857 21.7587 89.7857 22.3807C89.7857 23.0037 89.9817 23.5497 90.3857 23.9967C90.7897 24.4447 91.3137 24.6627 91.9367 24.6627ZM101.255 25.3187H100.415V21.9007C100.415 20.8847 99.9117 20.1537 98.9077 20.1537C98.4157 20.1537 98.0227 20.3387 97.7277 20.6997C97.4337 21.0597 97.2917 21.4967 97.2917 21.9987V25.3187H96.4397V19.4877H97.2807V20.5027C97.7717 19.7497 98.3287 19.3777 99.1587 19.3777C100.043 19.3777 100.666 19.7707 101.026 20.5467C101.528 19.7707 102.216 19.3887 103.079 19.3887C104.444 19.3887 105.23 20.3167 105.23 21.7147V25.3187H104.378V21.9227C104.378 20.8737 103.887 20.1647 102.872 20.1647C102.38 20.1647 101.987 20.3387 101.692 20.6887C101.398 21.0267 101.255 21.4527 101.255 21.9657V25.3187Z" fill="#1B1818"/>
<path d="M154.418 16.4567H151.707C151.535 9.3387 145.715 3.6207 138.563 3.6207C131.411 3.6207 125.591 9.3387 125.419 16.4567H122.728C122.89 7.8987 129.936 0.9067 138.574 0.9067C142.726 0.8997 146.713 2.5257 149.677 5.4347C152.641 8.3437 154.344 12.3027 154.418 16.4567Z" fill="#18484C"/>
<path d="M137.463 29.8117V32.5947C129.382 32.0357 122.969 25.4087 122.739 17.2347H125.462C125.611 21.6437 128.013 25.6607 131.614 27.9087C131.398 27.2437 131.245 26.4997 131.245 25.7667V8.02966H133.965V19.0497H136.684V21.7727H133.965V25.7667C133.965 27.4437 135.019 28.8917 136.441 29.5607C136.762 29.7087 137.109 29.7937 137.463 29.8117Z" fill="#96CA4C"/>
<path d="M154.426 17.1057C154.308 23.0467 150.93 28.1857 146.01 30.8087V26.3107C146.01 26.1817 146.001 26.0677 146.001 25.9387C146.001 23.6277 144.094 21.7727 141.785 21.7727H137.46V19.0507H141.028C143.336 19.0507 145.214 17.2117 145.214 14.9017C145.214 12.5907 143.336 10.7527 141.028 10.7527H134.74V8.02966H141.028C144.841 8.02966 147.945 11.0977 147.945 14.9157C147.945 17.0237 146.998 18.8867 145.509 20.1537C147.111 21.1777 148.341 22.5507 148.471 25.4037C150.803 22.8107 151.71 19.3097 151.71 17.1057H154.426Z" fill="#96CA4C"/>
<path d="M124.342 36.1917H123.24C123.223 36.1917 123.206 36.1857 123.192 36.1757C123.178 36.1647 123.168 36.1497 123.163 36.1327L122.813 34.9057C122.809 34.8937 122.809 34.8807 122.811 34.8687C122.813 34.8557 122.818 34.8447 122.826 34.8347C122.833 34.8247 122.843 34.8167 122.854 34.8107C122.866 34.8057 122.878 34.8027 122.89 34.8027H127.096C127.114 34.8027 127.131 34.8087 127.145 34.8197C127.159 34.8297 127.169 34.8447 127.174 34.8617L127.512 36.0897C127.515 36.1017 127.516 36.1147 127.513 36.1267C127.511 36.1387 127.506 36.1497 127.498 36.1597C127.491 36.1697 127.481 36.1777 127.47 36.1837C127.459 36.1887 127.447 36.1917 127.434 36.1917H126.087C126.065 36.1917 126.045 36.2007 126.03 36.2157C126.015 36.2307 126.006 36.2507 126.006 36.2727V40.8247C126.006 40.8457 125.998 40.8667 125.983 40.8817C125.967 40.8967 125.947 40.9057 125.926 40.9057H124.503C124.492 40.9057 124.482 40.9037 124.472 40.8997C124.462 40.8957 124.453 40.8897 124.446 40.8817C124.438 40.8747 124.432 40.8657 124.428 40.8557C124.424 40.8457 124.422 40.8357 124.422 40.8247V36.2727C124.422 36.2507 124.414 36.2307 124.399 36.2157C124.384 36.2007 124.363 36.1917 124.342 36.1917Z" fill="#333333"/>
<path d="M130.952 39.8227H128.463C128.449 39.8227 128.435 39.8267 128.423 39.8337C128.411 39.8407 128.401 39.8507 128.394 39.8627L127.807 40.8667C127.8 40.8787 127.79 40.8887 127.778 40.8957C127.766 40.9027 127.752 40.9067 127.738 40.9067H126.289C126.275 40.9067 126.261 40.9027 126.249 40.8957C126.237 40.8887 126.227 40.8787 126.22 40.8657C126.212 40.8537 126.209 40.8397 126.209 40.8257C126.209 40.8117 126.212 40.7977 126.22 40.7857L129.64 34.8387C129.647 34.8267 129.657 34.8167 129.669 34.8097C129.681 34.8027 129.695 34.7987 129.709 34.7987C129.724 34.7987 129.737 34.8027 129.75 34.8097C129.762 34.8167 129.772 34.8267 129.779 34.8387L133.195 40.7857C133.202 40.7977 133.206 40.8117 133.206 40.8257C133.206 40.8407 133.202 40.8537 133.195 40.8657C133.188 40.8787 133.178 40.8887 133.166 40.8957C133.153 40.9027 133.139 40.9067 133.125 40.9067H131.677C131.663 40.9067 131.649 40.9027 131.637 40.8957C131.624 40.8887 131.614 40.8787 131.607 40.8667L131.021 39.8627C131.014 39.8507 131.004 39.8407 130.992 39.8337C130.979 39.8267 130.967 39.8227 130.952 39.8227ZM130.272 38.5747L129.779 37.7307C129.772 37.7187 129.762 37.7087 129.749 37.7017C129.737 37.6947 129.723 37.6907 129.709 37.6907C129.695 37.6907 129.681 37.6947 129.669 37.7017C129.657 37.7087 129.647 37.7187 129.64 37.7307L129.144 38.5737C129.137 38.5867 129.133 38.6007 129.133 38.6147C129.133 38.6287 129.136 38.6427 129.143 38.6547C129.15 38.6677 129.16 38.6777 129.173 38.6847C129.185 38.6917 129.199 38.6957 129.213 38.6957H130.202C130.216 38.6957 130.23 38.6917 130.242 38.6847C130.254 38.6777 130.265 38.6677 130.272 38.6557C130.279 38.6427 130.282 38.6287 130.282 38.6147C130.282 38.6007 130.279 38.5867 130.272 38.5747Z" fill="#333333"/>
<path d="M137.137 40.9057H133.563C133.542 40.9057 133.521 40.8967 133.506 40.8817C133.491 40.8667 133.482 40.8457 133.482 40.8247V34.8867C133.482 34.8657 133.491 34.8457 133.506 34.8297C133.521 34.8147 133.542 34.8067 133.563 34.8067L134.986 34.8027C134.996 34.8027 135.007 34.8047 135.017 34.8087C135.026 34.8127 135.035 34.8187 135.043 34.8267C135.05 34.8337 135.056 34.8427 135.06 34.8527C135.064 34.8627 135.066 34.8727 135.066 34.8837V39.4317C135.066 39.4527 135.075 39.4727 135.09 39.4887C135.105 39.5037 135.126 39.5117 135.147 39.5117H137.511C137.524 39.5117 137.536 39.5147 137.548 39.5207C137.559 39.5267 137.569 39.5347 137.576 39.5447C137.584 39.5547 137.589 39.5667 137.591 39.5787C137.593 39.5917 137.592 39.6037 137.588 39.6157L137.214 40.8477C137.209 40.8647 137.199 40.8787 137.185 40.8897C137.171 40.8997 137.154 40.9057 137.137 40.9057Z" fill="#333333"/>
<path d="M138.04 40.8117V34.8837C138.04 34.8617 138.049 34.8417 138.064 34.8267C138.079 34.8107 138.099 34.8027 138.121 34.8027H139.838C140.348 34.8027 140.799 34.8657 141.19 34.9917C141.575 35.1157 141.877 35.3177 142.096 35.5987C142.311 35.8797 142.419 36.2417 142.419 36.6867C142.417 37.0197 142.319 37.3447 142.137 37.6237C141.981 37.8807 141.75 38.0817 141.474 38.2007C141.463 38.2047 141.454 38.2107 141.446 38.2197C141.438 38.2287 141.432 38.2377 141.428 38.2497C141.424 38.2607 141.423 38.2717 141.424 38.2837C141.425 38.2957 141.429 38.3067 141.435 38.3167L142.915 40.7797C142.922 40.7917 142.926 40.8057 142.926 40.8197C142.926 40.8347 142.923 40.8477 142.916 40.8607C142.909 40.8727 142.899 40.8837 142.886 40.8907C142.874 40.8977 142.86 40.9017 142.846 40.9017H141.183C141.169 40.9017 141.154 40.8977 141.142 40.8897C141.129 40.8827 141.119 40.8727 141.112 40.8597L139.642 38.1657H139.624V40.8117C139.624 40.8337 139.616 40.8537 139.6 40.8697C139.585 40.8847 139.565 40.8927 139.543 40.8927H138.121C138.099 40.8927 138.079 40.8847 138.064 40.8697C138.049 40.8537 138.04 40.8337 138.04 40.8117ZM139.624 37.7227C139.624 37.7327 139.626 37.7437 139.631 37.7537C139.635 37.7637 139.641 37.7727 139.649 37.7807C139.656 37.7877 139.666 37.7937 139.676 37.7977C139.686 37.8017 139.696 37.8037 139.707 37.8037C139.937 37.7977 140.131 37.7687 140.289 37.7147C140.451 37.6647 140.594 37.5637 140.694 37.4257C140.788 37.2947 140.835 37.1237 140.835 36.9147C140.835 36.5987 140.735 36.3837 140.534 36.2697C140.345 36.1627 140.069 36.1057 139.707 36.0977C139.696 36.0977 139.686 36.0997 139.676 36.1037C139.665 36.1077 139.656 36.1137 139.649 36.1217C139.641 36.1287 139.635 36.1377 139.631 36.1477C139.626 36.1577 139.624 36.1687 139.624 36.1787V37.7227Z" fill="#333333"/>
<path d="M147.631 35.2327C148.091 35.4967 148.475 35.8767 148.742 36.3357C149.014 36.7987 149.156 37.3267 149.153 37.8637C149.157 38.3997 149.015 38.9267 148.742 39.3867C148.473 39.8477 148.087 40.2287 147.625 40.4937C147.162 40.7587 146.638 40.8967 146.105 40.8947C145.571 40.8957 145.047 40.7577 144.584 40.4927C144.12 40.2287 143.734 39.8477 143.464 39.3867C143.19 38.9267 143.048 38.3997 143.053 37.8637C143.049 37.3267 143.191 36.7987 143.464 36.3357C143.733 35.8777 144.118 35.4977 144.579 35.2327C145.044 34.9677 145.57 34.8287 146.105 34.8287C146.64 34.8287 147.166 34.9677 147.631 35.2327ZM145.287 36.3927C145.039 36.5507 144.835 36.7677 144.692 37.0247C144.549 37.2817 144.472 37.5697 144.469 37.8637C144.469 38.1557 144.546 38.4437 144.693 38.6967C144.833 38.9577 145.038 39.1777 145.287 39.3377C145.53 39.4957 145.813 39.5787 146.103 39.5787C146.392 39.5787 146.676 39.4957 146.919 39.3377C147.168 39.1767 147.374 38.9567 147.517 38.6967C147.661 38.4427 147.736 38.1557 147.736 37.8637C147.736 37.5717 147.661 37.2847 147.517 37.0297C147.375 36.7717 147.171 36.5527 146.923 36.3927C146.679 36.2357 146.395 36.1517 146.105 36.1517C145.814 36.1507 145.53 36.2347 145.287 36.3927Z" fill="#333333"/>
<path d="M149.786 40.8247V34.8837C149.786 34.8617 149.795 34.8417 149.81 34.8267C149.825 34.8107 149.845 34.8027 149.867 34.8027H151.716C152.147 34.8027 152.514 34.8347 152.818 34.8977C153.103 34.9507 153.375 35.0587 153.619 35.2157C153.844 35.3657 154.024 35.5757 154.138 35.8217C154.259 36.0767 154.32 36.3877 154.32 36.7557C154.324 37.0357 154.262 37.3127 154.138 37.5637C154.016 37.8017 153.844 38.0107 153.632 38.1747C153.403 38.3527 153.142 38.4847 152.863 38.5657C152.561 38.6577 152.246 38.7047 151.93 38.7037H151.455C151.445 38.7037 151.434 38.7057 151.424 38.7097C151.414 38.7137 151.406 38.7197 151.398 38.7277C151.391 38.7347 151.385 38.7437 151.381 38.7537C151.377 38.7637 151.375 38.7737 151.375 38.7847V40.8247C151.375 40.8467 151.366 40.8667 151.351 40.8827C151.336 40.8977 151.315 40.9057 151.294 40.9057H149.867C149.845 40.9057 149.825 40.8977 149.81 40.8827C149.795 40.8667 149.786 40.8467 149.786 40.8247ZM151.375 36.1777V37.3287C151.375 37.3497 151.383 37.3707 151.398 37.3857C151.413 37.4007 151.434 37.4087 151.455 37.4087H151.83C152.121 37.4087 152.346 37.3517 152.504 37.2367C152.658 37.1247 152.736 36.9617 152.736 36.7467C152.736 36.5377 152.658 36.3767 152.504 36.2647C152.346 36.1527 152.121 36.0977 151.83 36.0977H151.455C151.434 36.0977 151.413 36.1057 151.398 36.1207C151.383 36.1357 151.375 36.1567 151.375 36.1777Z" fill="#333333"/>
</g>
</g>
<defs>
<clipPath id="clip0_385_268">
<rect width="142" height="40" fill="white" transform="translate(13.2427 0.906677)"/>
</clipPath>
<clipPath id="clip1_385_268">
<rect width="142" height="40" fill="white" transform="translate(13.2427 0.906677)"/>
</clipPath>
</defs>
</svg>
