<svg width="245" height="59" viewBox="0 0 245 59" fill="none" xmlns="http://www.w3.org/2000/svg">
<mask id="mask0_385_233" style="mask-type:luminance" maskUnits="userSpaceOnUse" x="0" y="1" width="244" height="57">
<path d="M243.745 1.23592H0.740639V57.7987H243.745V1.23592Z" fill="white"/>
</mask>
<g mask="url(#mask0_385_233)">
<path d="M82.0162 22.6372H71.6364V26.0842H82.4562C83.5174 26.0842 84.4842 26.4479 85.3553 27.1761C86.1921 28.0511 86.6107 28.9508 86.6107 29.8751V30.2429C86.6107 30.4309 86.5761 30.6803 86.5072 30.9914C86.1624 32.063 85.5926 32.8399 84.7986 33.3221C84.1775 33.7963 83.1982 34.0339 81.8609 34.0339H71.6107V40.3022H75.3772V37.5295L82.1592 37.4559C82.8408 37.4559 83.4362 37.4189 83.9455 37.3454C85.4724 37.0348 86.7625 36.4375 87.8154 35.5542C89.5241 34.0003 90.3778 32.1848 90.3778 30.1074C90.3778 29.1096 90.2008 28.1773 89.8468 27.3104C88.3881 24.1956 85.7778 22.6372 82.0162 22.6372ZM100.122 36.4381C99.5188 36.2336 98.8714 35.8165 98.1814 35.1869C97.1287 34.0175 96.6025 32.7661 96.6025 31.4334C96.6025 31.0492 96.667 30.5909 96.7968 30.0592C97.3833 28.4891 98.2292 27.43 99.3335 26.882C100.144 26.334 101.335 26.0603 102.906 26.0603H111.603V22.6253H103.436C101.797 22.6253 100.68 22.7114 100.084 22.8831C98.9198 23.0712 97.6165 23.6805 96.1756 24.7112C93.9755 26.576 92.8755 28.8245 92.8755 31.4584C92.8755 32.6767 93.1171 33.8259 93.6001 34.9053C94.5926 37.0643 96.2361 38.6182 98.5312 39.5667C99.5577 40.0574 101.137 40.3027 103.267 40.3027H111.603V36.8677H102.854C101.697 36.8671 100.787 36.7243 100.122 36.4381ZM33.1717 22.6372H22.7918V26.0842H33.6117C34.6728 26.0842 35.6396 26.4479 36.5105 27.1761C37.3476 28.0511 37.7661 28.9508 37.7661 29.8751V30.2429C37.7661 30.4309 37.7314 30.6803 37.6626 30.9914C37.3177 32.063 36.748 32.8399 35.954 33.3221C35.3329 33.7963 34.3536 34.0339 33.0163 34.0339H22.7661V40.3022H26.5325V37.5295L33.3145 37.4559C33.9961 37.4559 34.5916 37.4189 35.1002 37.3454C36.6272 37.0348 37.9174 36.4375 38.9702 35.5542C40.6789 34.0003 41.5326 32.1848 41.5326 30.1074C41.5326 29.1096 41.3556 28.1773 41.0016 27.3104C39.5435 24.1956 36.9333 22.6372 33.1717 22.6372ZM65.3854 22.6372L59.9755 28.7831L54.5655 22.6372H50.3465L57.6977 31.4697L50.3465 40.3022H54.5655L59.9755 34.1562L65.3854 40.3022H69.6044L62.2532 31.4697L69.6306 22.6372H65.3854ZM44.0303 40.3022H47.7704V22.6372H44.0303V40.3022ZM154.383 29.8751C153.796 29.5561 152.683 29.3968 151.044 29.3968H144.663C144.447 29.3968 144.24 29.36 144.042 29.2864C143.394 28.9186 143.071 28.4601 143.071 27.9122V27.6544C143.295 26.7302 143.904 26.2683 144.896 26.2683H157.579V22.6372H145.011C143.735 22.6372 142.708 22.8582 141.931 23.2996C140.068 24.3548 139.135 25.79 139.135 27.6056V28.0839C139.135 28.9673 139.408 29.8382 139.951 30.6967C141.202 32.2505 142.764 33.0274 144.637 33.0274H151.793C152.199 33.0274 152.532 33.0926 152.79 33.2235C153.523 33.5998 153.89 34.1392 153.89 34.843L153.865 35.1739C153.57 36.1718 152.889 36.6705 151.819 36.6705H139.085L139.098 40.3016H150.953C152.117 40.3016 152.95 40.2483 153.451 40.1424C154.124 39.9707 154.72 39.7293 155.236 39.4188C156.979 38.2084 157.851 36.7197 157.851 34.9535C157.851 34.2174 157.695 33.4608 157.385 32.684C156.833 31.4249 155.832 30.4883 154.383 29.8751ZM134.463 20.8103C132.986 19.3297 130.945 18.5896 128.342 18.5896H113.583V22.789H128.231C128.676 22.789 128.9 22.8095 128.9 22.8497C129.633 22.8497 130.325 23.0916 130.973 23.575C131.727 24.2697 132.104 25.0454 132.104 25.9017C132.082 26.1131 132.041 26.3749 131.977 26.6871C131.46 28.0499 130.527 28.8098 129.179 28.9673V28.9503H101.797V33.2002H122.797C124.593 33.2218 126.055 33.6082 127.179 34.3613C129.209 35.7615 130.224 37.6496 130.224 40.0268V40.3594H134.862C134.862 37.1464 133.895 34.5631 131.961 32.6092C132.727 32.3673 133.577 31.8238 134.511 30.9779C135.966 29.4569 136.694 27.9009 136.694 26.3097V25.6904C136.694 24.6528 136.408 23.5904 135.834 22.5029C135.578 21.9583 135.121 21.3945 134.463 20.8103ZM199.306 27.3603C199.142 27.0248 198.874 26.6203 198.503 26.1459C196.483 23.8067 193.982 22.6378 190.996 22.6378C188.011 22.6378 185.513 23.8073 183.503 26.1459C183.123 26.6122 182.851 27.0169 182.688 27.3603C182.446 27.7609 182.217 28.301 182.002 28.9798C181.743 29.7975 181.614 30.9098 181.614 32.3163V40.3022H185.367V31.936C185.367 29.1226 186.708 27.2419 189.392 26.2932C189.996 26.1296 190.531 26.0439 190.997 26.0354C191.463 26.0434 192.002 26.1296 192.614 26.2932C195.298 27.2419 196.641 29.1232 196.641 31.936V40.3022H200.379V32.3163C200.379 30.9098 200.251 29.7975 199.992 28.9798C199.775 28.301 199.546 27.7609 199.306 27.3603ZM213.025 22.6128C211.627 22.6128 210.562 22.7109 209.828 22.9075C209.008 23.1285 208.366 23.3614 207.899 23.6067C207.252 23.8521 206.42 24.4449 205.402 25.3855C203.72 27.1603 202.878 29.1107 202.878 31.2368V31.7519C202.878 33.2728 203.361 34.7613 204.328 36.2171C204.716 36.9204 205.488 37.7058 206.645 38.5722C208.24 39.7253 210.195 40.3016 212.508 40.3016H215.627V36.8791H213.025C211.696 36.8791 210.761 36.7481 210.216 36.4863C209.673 36.3474 209.026 35.9384 208.275 35.2595C207.154 34.1063 206.593 32.8426 206.593 31.4691C206.593 30.3568 207.007 29.2405 207.836 28.1202C208.603 27.188 209.544 26.5788 210.656 26.2921C210.863 26.1448 211.899 26.0711 213.763 26.0711H214.565L217.905 26.0587V40.3011H221.644V22.6117H213.025V22.6128ZM169.81 22.6372H169.68C169.041 22.6372 168.524 22.678 168.127 22.7596C166.833 22.8905 165.4 23.4872 163.831 24.5508C161.509 26.4479 160.35 28.7299 160.35 31.396V31.5185C160.35 32.4591 160.517 33.4195 160.853 34.401C161.138 35.1858 161.634 36.0488 162.342 36.9895C164.37 39.1977 166.807 40.3016 169.654 40.3016H169.784C171.863 40.3016 173.773 39.6886 175.517 38.4616C177.916 36.5645 179.115 34.2582 179.115 31.5428V31.4204C179.115 29.4575 178.459 27.6419 177.148 25.9736C175.12 23.7495 172.674 22.6372 169.81 22.6372ZM175.13 33.0524C174.748 34.2055 174.024 35.1541 172.955 35.898C171.919 36.5441 170.901 36.8671 169.899 36.8671H169.539C168.295 36.8671 167.11 36.4092 165.978 35.493C164.711 34.3319 164.077 32.9821 164.077 31.4447C164.077 30.8725 164.198 30.2673 164.44 29.6292C164.577 29.1713 164.909 28.6148 165.436 27.961C166.687 26.6854 168.119 26.0473 169.732 26.0473C171.112 26.0473 172.381 26.5341 173.537 27.507C174.772 28.6602 175.389 29.989 175.389 31.4941C175.336 32.2301 175.25 32.7497 175.13 33.0524Z" fill="white"/>
</g>
</svg>
